<?xml version="1.0" encoding="UTF-8" standalone="no"?>
<!DOCTYPE svg  PUBLIC '-//W3C//DTD SVG 1.1//EN'  'http://www.w3.org/Graphics/SVG/1.1/DTD/svg11.dtd'>
<svg xmlns="http://www.w3.org/2000/svg" version="1.1">
<defs>
<font id="Bolt-Rounded" horiz-adv-x="1150">
<font-face font-family="Bolt Rounded" underline-thickness="50" cap-height="1411" font-weight="400" x-height="951" unicode-range="U+0020-007D" ascent="1536" descent="-512" units-per-em="2048" bbox="-16.25 -511 1791.65 1628" panose-1="0 0 5 0 0 0 0 0 0 0" underline-position="-200"/>
<missing-glyph/>
<glyph unicode=" " horiz-adv-x="507" glyph-name="space"/>
<glyph unicode="!" horiz-adv-x="540" d="M153 171q18 30 49 48q32 17 66 17q36 0 68 -17q30 -16 49 -47q18 -30 18 -66q0 -54 -39 -90t-96 -36q-55 0 -94 36q-39 34 -39 90q0 35 18 65zM217.5 397.5q-18.5 18.5 -19.5 46.5l-19 899q-1 30 18.5 49t48.5 19h48q30 0 49 -19t18 -49l-16 -899q-1 -28 -19.5 -46.5 t-46.5 -18.5h-15q-28 0 -46.5 18.5z" glyph-name="exclam"/>
<glyph unicode='&quot;' horiz-adv-x="727" d="M280.5 840q-18.5 -19 -47.5 -19h-13q-28 0 -47 19t-19 47v458q0 29 19 47.5t47 18.5h13q29 0 47.5 -18.5t18.5 -47.5v-458q0 -28 -18.5 -47zM554.5 840q-18.5 -19 -47.5 -19h-13q-28 0 -47 19t-19 47v458q0 29 19 47.5t47 18.5h13q29 0 47.5 -18.5t18.5 -47.5v-458 q0 -28 -18.5 -47z" glyph-name="quotedbl"/>
<glyph unicode="#" horiz-adv-x="1343" d="M169 348q-32 0 -53 19t-21 48q0 10 3 20l11 41q5 21 21.5 33.5t37.5 12.5h166l96 359h-116q-32 0 -52.5 19t-20.5 48q0 10 3 20l10 40q5 22 21.5 34.5t38.5 12.5h165l87 311q6 21 22 33t37 12h35q32 0 52.5 -20t20.5 -50q0 -10 -3 -22l-73 -264h220l86 311 q5 20 21.5 32.5t37.5 12.5h35q32 0 53 -20t21 -50q0 -10 -3 -22l-73 -264h120q33 0 54 -19t21 -48q0 -9 -3 -20l-12 -42q-5 -20 -21.5 -32.5t-37.5 -12.5h-170l-99 -359h120q33 0 54 -19t21 -48q0 -9 -3 -20l-12 -42q-5 -20 -21.5 -32.5t-37.5 -12.5h-168l-87 -304 q-6 -20 -22 -32t-37 -12h-34q-32 0 -52.5 20.5t-20.5 50.5q0 10 3 22l72 255h-219l-88 -304q-6 -20 -22 -32t-37 -12h-31q-33 0 -53.5 20t-20.5 50q0 11 3 23l73 255h-118zM608 881l-98 -359h219l98 359h-219z" glyph-name="numbersign"/>
<glyph unicode="$" d="M272.5 394q15.5 -14 22.5 -38q8 -33 34 -70q41 -59 109 -93q72 -35 152 -35q81 0 142 27q59 25 98 74q35 47 44 106q1 3 1 20q0 90 -63 148q-63 57 -177 83l-182 46q-344 87 -344 368q0 105 54 190q53 86 147 140q93 52 206 63v139q0 28 18.5 47t45.5 19t45 -19t18 -47 v-141q112 -13 198 -68q86 -56 132 -142q30 -56 41 -125q1 -4 1 -11q0 -26 -20 -43.5t-48 -17.5h-62q-24 0 -40.5 15.5t-21.5 40.5q-9 34 -27 64q-34 52 -95 82q-64 29 -138 29q-71 0 -131 -27q-61 -28 -97 -76q-36 -49 -36 -110q0 -146 201 -196l184 -45q186 -48 284 -146 q97 -98 97 -242q0 -26 -4 -55q-12 -100 -66 -179q-56 -80 -145 -129q-93 -50 -207 -58v-160q0 -28 -18 -47t-45 -19q-28 0 -46 18.5t-18 47.5v162q-120 15 -215 76q-96 61 -151 154q-33 56 -47 120q-1 4 -1 12q0 27 19.5 44.5t48.5 17.5h64q23 0 38.5 -14z" glyph-name="dollar"/>
<glyph unicode="%" horiz-adv-x="1396" d="M213 1342q62 36 137 36t138 -36q63 -37 100 -100q37 -61 37 -138q0 -75 -36 -137q-38 -63 -100 -99q-64 -37 -139 -37q-76 0 -137 36q-63 36 -99 99q-36 62 -36 138q0 75 36 138q36 62 99 100zM350 975q56 0 93 37q38 38 38 92q0 34 -17 66q-18 30 -48 48q-32 17 -66 17 q-54 0 -92 -38q-37 -37 -37 -93t37 -92q36 -37 92 -37zM410.5 9q-13.5 -9 -30.5 -9q-25 0 -40.5 18.5t-15.5 46.5q0 23 12 48l602 1232q8 15 21.5 24t30.5 9q26 0 41.5 -18.5t15.5 -46.5q0 -22 -12 -48l-603 -1232q-8 -15 -21.5 -24zM910 490q62 36 137 36t138 -36 q63 -37 100 -100q36 -63 36 -138t-36 -137q-38 -63 -100 -99q-63 -36 -138 -36t-138 36t-99 99q-36 62 -36 137q0 76 37 138q36 62 99 100zM1047 123q56 0 93 37q38 38 38 92q0 34 -17 66q-18 30 -48 48q-32 17 -66 17q-54 0 -92 -38q-37 -37 -37 -93t37 -92q37 -37 92 -37z " glyph-name="percent"/>
<glyph unicode="&amp;" horiz-adv-x="1345" d="M322 805q-49 46 -74 112q-27 66 -27 142q0 96 48 177q49 81 133 128q86 47 186 47q104 0 195 -54q57 -34 104 -89q15 -18 15 -39q0 -34 -34 -56l-42 -26q-16 -10 -33 -10q-28 0 -52 26q-18 21 -46 39q-49 31 -107 31q-54 0 -97 -22t-67 -63q-25 -40 -25 -89q0 -50 24 -95 t66 -72q40 -28 91 -28h276v27q0 29 19 47.5t47 18.5h44q28 0 47 -13.5t19 -33.5v-48l96 16q5 1 16 1q28 0 47 -17t19 -44v-22q0 -24 -15 -41t-38 -21l-125 -21v-281q0 -67 9 -112q7 -44 29 -84q32 -62 116 -77q26 -5 42.5 -22t16.5 -42v-41q0 -29 -17.5 -48.5t-44.5 -19.5 l-10 1q-66 9 -123 36q-87 41 -128 110q-52 -70 -146 -111q-93 -40 -203 -40q-130 0 -236 59q-105 59 -165 162q-59 104 -59 229q0 113 56 213q56 99 153 160zM426 196q65 -36 147 -36q78 0 142 34q64 33 101 93q37 58 40 133v293h-281q-77 0 -142 -38q-65 -39 -104 -104 q-38 -65 -38 -139q0 -77 36 -139q35 -63 99 -97z" glyph-name="ampersand"/>
<glyph unicode="&apos;" horiz-adv-x="452" d="M280.5 840q-18.5 -19 -47.5 -19h-13q-28 0 -47 19t-19 47v458q0 29 19 47.5t47 18.5h13q29 0 47.5 -18.5t18.5 -47.5v-458q0 -28 -18.5 -47z" glyph-name="quotesingle"/>
<glyph unicode="(" horiz-adv-x="743" d="M170 981q69 217 196 332q99 88 224 108q4 1 11 1q26 0 43.5 -20t17.5 -48v-52q0 -24 -15.5 -41t-40.5 -22q-84 -18 -148 -88q-88 -94 -136 -269q-48 -174 -48 -407q0 -232 48 -406q48 -175 136 -269q65 -71 148 -89q25 -5 40.5 -22t15.5 -41v-52q0 -28 -17.5 -48 t-43.5 -20q-7 0 -11 1q-125 20 -224 108q-127 113 -196 330q-70 211 -70 508q0 290 70 506z" glyph-name="parenleft"/>
<glyph unicode=")" horiz-adv-x="743" d="M97.5 -311q15.5 17 40.5 22q84 18 149 88q87 95 135 269q47 177 47 407t-47 407q-48 175 -135 269q-65 70 -149 88q-25 5 -40.5 22t-15.5 41v52q0 28 17.5 48t43.5 20q7 0 11 -1q126 -20 224 -109q126 -114 196 -331q69 -216 69 -506q0 -289 -69 -505q-70 -217 -196 -331 q-100 -91 -224 -110q-4 -1 -11 -1q-26 0 -43.5 20t-17.5 48v52q0 24 15.5 41z" glyph-name="parenright"/>
<glyph unicode="*" horiz-adv-x="956" d="M283 1109l66 34l-103 62q-16 10 -25.5 24.5t-9.5 30.5q0 15 7 26q7 12 19 18.5t27 6.5q20 0 41 -12l40 -23q45 -27 61 -35v122q0 28 17 47t43 19q25 0 41.5 -19t16.5 -48l-1 -121l105 59q19 10 38 10q32 0 47 -25q6 -12 6 -25q0 -16 -9 -31t-27 -25l-108 -62l102 -58 q18 -10 27.5 -25t9.5 -31q0 -14 -8 -28q-7 -14 -20 -21t-29 -7q-18 0 -38 11l-101 59l-1 -113q0 -28 -16 -46.5t-40 -18.5t-39.5 18.5t-15.5 47.5v112l-101 -56q-17 -10 -36 -10q-33 0 -50 29q-13 24 -13 42q0 19 13 27z" glyph-name="asterisk"/>
<glyph unicode="+" horiz-adv-x="1062" d="M177 446q-28 0 -47 19t-19 47v47q0 29 19 47.5t47 18.5h265v265q0 29 19 47.5t47 18.5h47q29 0 47.5 -18.5t18.5 -47.5v-265h265q29 0 47.5 -18.5t18.5 -47.5v-47q0 -28 -18.5 -47t-47.5 -19h-265v-267q0 -28 -18.5 -47t-47.5 -19h-47q-28 0 -47 19t-19 47v267h-265z" glyph-name="plus"/>
<glyph unicode="," horiz-adv-x="526" d="M130.5 -85.5q-9.5 14.5 -9.5 31.5q0 12 6 26q15 30 24 51q15 35 19 62q5 33 5 81v2q-1 29 18.5 48.5t48.5 19.5h67q27 0 45 -10t19 -26q1 -12 1 -35q0 -149 -69 -223q-21 -22 -59 -55q-16 -15 -39 -15q-12 0 -26 7l-23 12q-18 9 -27.5 23.5z" glyph-name="comma"/>
<glyph unicode="-" horiz-adv-x="995" d="M835.5 408q-18.5 -19 -47.5 -19h-581q-28 0 -47 19t-19 47v46q0 29 19 47.5t47 18.5h581q29 0 47.5 -18.5t18.5 -47.5v-46q0 -28 -18.5 -47z" glyph-name="hyphen"/>
<glyph unicode="." horiz-adv-x="544" d="M157 171q18 30 49 48q32 17 66 17q36 0 68 -17q29 -15 50 -47q18 -30 18 -66q0 -54 -39 -90q-40 -36 -97 -36q-55 0 -94 36q-39 35 -39 90q0 35 18 65z" glyph-name="period"/>
<glyph unicode="/" horiz-adv-x="1026" d="M261 8.5q-14 -8.5 -31 -8.5h-40q-36 0 -58.5 21.5t-22.5 53.5q0 20 10 39l625 1265q7 15 21 23.5t31 8.5h40q36 0 58.5 -21.5t22.5 -53.5q0 -20 -10 -39l-625 -1265q-7 -15 -21 -23.5z" glyph-name="slash"/>
<glyph unicode="0" horiz-adv-x="1239" d="M324 1260q52 46 129 70q75 24 168 24q111 0 195 -34q87 -35 143 -97q50 -57 85 -147q33 -85 47 -191q13 -88 13 -219q0 -130 -13 -221q-13 -92 -46 -181q-35 -94 -87 -152q-55 -60 -138 -94q-85 -36 -199 -36q-110 0 -195 35q-88 34 -143 97q-50 56 -85 145 q-34 85 -49 191q-14 107 -14 216q0 195 41 348q40 150 148 246zM356 371q23 -69 55 -112q33 -43 86 -69q57 -26 124 -26q69 0 122 25q53 26 89 72q31 39 52 105q21 65 30 141q8 85 8 159q0 90 -8 165q-7 66 -28 132q-21 69 -55 111q-35 44 -86 69q-57 26 -124 26 q-70 0 -123 -25q-54 -26 -88 -71q-31 -41 -52 -106q-22 -62 -31 -141q-8 -85 -8 -160q0 -94 9 -163q7 -66 28 -132z" glyph-name="zero"/>
<glyph unicode="1" horiz-adv-x="684" d="M179 1100q-24 -1 -42 13t-22 37l-7 34q-1 5 -1 14q0 22 13 39t35 23l240 65q12 3 23 3q30 0 49.5 -20.5t19.5 -52.5v-1189q0 -28 -18.5 -47t-47.5 -19h-52q-28 0 -47 19t-19 47v1038z" glyph-name="one"/>
<glyph unicode="2" horiz-adv-x="1079" d="M135.5 978.5q-20.5 18.5 -20.5 45.5q0 12 4 23q21 58 57 110q61 90 155 144q92 53 195 53q116 0 213 -53q96 -53 152 -146q55 -91 55 -207q0 -89 -35 -171q-34 -80 -110 -165q-100 -114 -195 -230q-70 -84 -97 -120q-36 -46 -71 -88l442 9q29 1 48.5 -18.5t19.5 -48.5 v-50q0 -28 -18.5 -47t-47.5 -19h-690q-22 0 -38.5 11t-20.5 30l-3 14q-2 8 -2 13q0 20 13 36l525 635q51 61 75 111q23 51 23 98q0 63 -30 112q-33 51 -86 80q-56 29 -122 29q-64 0 -114 -25q-51 -25 -85 -74q-19 -26 -32 -63q-7 -22 -22.5 -35t-37.5 -13h-49 q-30 1 -50.5 19.5z" glyph-name="two"/>
<glyph unicode="3" horiz-adv-x="1095" d="M236 318q32 0 56 -32q27 -37 66 -66q64 -48 142 -54h-2q73 -4 143 25q65 28 107 83q40 52 40 117q0 62 -35 118q-37 57 -95 88q-63 32 -128 28l-79 -5q-31 -2 -51.5 17t-20.5 50v45q0 26 17.5 45t43.5 20l90 6q77 5 126 39q49 33 59 94q4 17 4 48q0 59 -25 100 q-25 42 -66 63q-49 25 -113 25q-67 0 -124 -30q-33 -18 -61 -46q-22 -24 -50 -24q-18 0 -35 12l-26 18q-14 10 -22 24t-8 29q0 19 14 38q48 62 119 104q99 60 210 60q108 0 200 -50q90 -50 143 -138q47 -83 47 -173q0 -51 -13 -93q-35 -113 -155 -182q58 -22 112 -76 q51 -52 81 -122q29 -72 29 -139q0 -21 -1 -24q-11 -111 -79 -200q-69 -91 -179 -138q-89 -40 -194 -40q-74 0 -143 22q-73 23 -132 65q-55 38 -89 81q-20 25 -31 45q-9 15 -9 32t9.5 32t25.5 24l51 27q13 8 31 8z" glyph-name="three"/>
<glyph unicode="4" horiz-adv-x="1212" d="M216 274q-39 0 -63.5 23.5t-24.5 56.5q0 26 18 53l632 906q17 24 46 24h42q29 0 47.5 -18.5t18.5 -47.5v-822h126q29 0 47.5 -18.5t18.5 -47.5v-43q0 -28 -18.5 -47t-47.5 -19h-126v-208q0 -28 -18.5 -47t-47.5 -19h-50q-28 0 -47 19t-19 47v208h-534zM760 996l-383 -557 h383v557z" glyph-name="four"/>
<glyph unicode="5" horiz-adv-x="1155" d="M227 347q36 0 60 -39q35 -57 89 -98q83 -62 177 -62q102 0 172 36t105 101q34 61 34 145q0 78 -35 137q-35 57 -99 89q-63 30 -142 30q-85 0 -157 -23q-57 -19 -138 -66q-15 -9 -31 -9q-21 0 -38 14l-57 47q-21 18 -21 43q0 7 1 11l102 580q4 23 21.5 37.5t40.5 14.5h589 q30 0 49.5 -20.5t17.5 -50.5l-2 -42q-2 -27 -21 -45t-46 -17l-488 9l-74 -379q41 29 114 49q69 19 138 19q132 0 231 -49q101 -50 162 -145q63 -99 63 -234q0 -133 -62 -236q-62 -102 -176 -158q-117 -56 -263 -56q-95 0 -180 38q-89 38 -156 107q-46 46 -79 103 q-9 16 -9 33t9.5 31.5t25.5 23.5l41 22q17 9 32 9z" glyph-name="five"/>
<glyph unicode="6" horiz-adv-x="1138" d="M182 1000q45 160 139 246q119 108 286 108q68 0 122 -12q54 -13 108 -42q78 -43 137 -139q10 -18 10 -34q0 -19 -11.5 -35t-31.5 -25l-46 -19q-10 -5 -25 -5q-32 0 -54 31q-27 39 -68 67q-60 39 -132 39q-83 0 -150 -50q-66 -51 -102 -142q-37 -89 -37 -207q0 -33 3 -68 q60 151 274 151q117 0 214 -63q99 -65 152 -172q48 -96 48 -204q0 -123 -60 -227q-60 -103 -164 -162q-97 -54 -211 -54q-63 0 -118 16q-58 16 -107 46q-92 57 -148 159q-57 103 -67 237q-7 92 -7 181q0 220 46 379zM462 203q56 -35 125 -35q71 0 133 34q61 33 99 92 q37 58 37 129q0 66 -35 125q-34 57 -95 94q-65 38 -138 38q-63 0 -116 -29q-56 -32 -89 -89q-34 -58 -35 -128q0 -74 30 -136q29 -60 84 -95z" glyph-name="six"/>
<glyph unicode="7" horiz-adv-x="1085" d="M391.5 9q-13.5 -9 -30.5 -9h-80q-36 0 -58.5 21.5t-22.5 52.5q0 21 10 41l529 1040h-546q-28 0 -47 19t-19 47v50q0 29 19 47.5t47 18.5h732q35 0 58 -21.5t23 -52.5q0 -20 -10 -39l-583 -1191q-8 -15 -21.5 -24z" glyph-name="seven"/>
<glyph unicode="8" d="M327 776q-108 105 -108 236q0 93 47 173q47 78 128 124q81 45 181 45q99 0 183 -45q84 -47 131 -125q47 -80 47 -172q0 -64 -31 -125t-84 -111q99 -61 158 -156q57 -95 57 -202q0 -118 -60 -219q-62 -101 -167 -159q-106 -58 -234 -58q-127 0 -233 58q-106 57 -166 157 q-61 100 -61 221q0 108 58 203q58 96 154 155zM435 198q61 -34 140 -34q76 0 140 34t101 92q36 59 36 128q0 70 -36 128q-39 60 -101 95q-65 35 -140 35h-14q-70 -1 -132 -37q-60 -34 -95 -94q-35 -59 -35 -127q0 -70 36 -129q36 -58 100 -91zM423 943q21 -37 59 -60t83 -25 h17q46 1 87 25q40 24 61 59q22 37 22 80q0 42 -23 79q-22 35 -64 57q-40 21 -90 21q-73 0 -123 -45q-51 -46 -51 -112q0 -44 22 -79z" glyph-name="eight"/>
<glyph unicode="9" horiz-adv-x="1136" d="M343 1298q97 54 210 54q62 0 119 -16q58 -17 106 -46q94 -57 149 -159q56 -102 66 -238q7 -98 7 -187q0 -450 -183 -618q-118 -108 -287 -108q-69 0 -122 12q-56 14 -107 43q-79 42 -138 137q-10 16 -10 33q0 20 12 37t32 25l46 19q10 5 24 5q32 0 54 -31q28 -40 68 -66 q59 -40 131 -40q84 0 150 51q65 49 103 141q37 89 37 207q0 34 -3 68q-30 -75 -101 -113q-70 -39 -174 -39q-116 0 -213 64q-99 65 -152 172q-48 96 -48 204q0 124 61 227q60 104 163 162zM416 688q62 -35 131 -35q67 0 123 32q55 32 86 88q32 55 33 126q0 74 -29 137 q-29 60 -84 95q-55 34 -126 34t-132 -34t-99 -93t-38 -130q0 -68 37 -126q37 -60 98 -94z" glyph-name="nine"/>
<glyph unicode=":" horiz-adv-x="550" d="M159 171q18 30 49 48q32 17 68 17q35 0 67 -17q30 -17 49 -47q18 -30 18 -66q0 -35 -18 -65q-19 -31 -49 -47q-32 -17 -67 -17q-53 0 -95 39q-40 34 -40 90q0 35 18 65zM180 941q39 36 96 36q35 0 67 -17q30 -16 49 -46q18 -29 18 -64t-18 -67q-18 -31 -49 -49t-67 -18 q-52 0 -95 42q-40 37 -40 92q0 54 39 91z" glyph-name="colon"/>
<glyph unicode=";" horiz-adv-x="581" d="M163 24q15 38 15 90l-2 53q-1 29 18.5 49t48.5 20h54q32 0 51.5 -22t15.5 -53q-6 -61 -17 -106q-16 -66 -47 -108q-21 -30 -54 -60q-16 -15 -38 -15q-13 0 -27 7l-23 12q-16 8 -24.5 21t-8.5 28q0 14 10 31q19 31 28 53zM208 941q37 36 95 36q57 0 96 -36q39 -37 39 -91 t-39 -92q-40 -37 -96 -37q-57 0 -94 37q-39 38 -39 92q0 55 38 91z" glyph-name="semicolon"/>
<glyph unicode="&lt;" horiz-adv-x="1273" d="M1115.5 116q-19.5 -18 -48.5 -18q-13 0 -34 7l-898 341q-18 7 -28.5 22t-10.5 34v96q0 19 10 34t28 22l898 343q17 7 34 7q30 0 49.5 -18.5t19.5 -48.5v-57q0 -19 -10.5 -34t-28.5 -22l-742 -273l742 -276q18 -7 28.5 -22.5t10.5 -34.5v-55q0 -29 -19.5 -47z" glyph-name="less"/>
<glyph unicode="=" horiz-adv-x="1245" d="M1075.5 244q-18.5 -19 -47.5 -19h-810q-28 0 -47 19t-19 47v46q0 29 19 47.5t47 18.5h810q29 0 47.5 -18.5t18.5 -47.5v-46q0 -28 -18.5 -47zM1075.5 640q-18.5 -19 -47.5 -19h-810q-28 0 -47 19t-19 47v46q0 29 19 47.5t47 18.5h810q29 0 47.5 -18.5t18.5 -47.5v-46 q0 -28 -18.5 -47z" glyph-name="equal"/>
<glyph unicode="&gt;" horiz-adv-x="1271" d="M1165.5 468q-10.5 -15 -27.5 -22l-896 -344q-18 -6 -34 -6q-29 0 -49 18.5t-20 47.5v56q0 19 10.5 34.5t28.5 22.5l740 276l-740 273q-18 7 -28.5 22t-10.5 34v46q0 34 20.5 55.5t51.5 21.5q15 0 31 -6l896 -343q17 -7 27.5 -22t10.5 -34v-96q0 -19 -10.5 -34z" glyph-name="greater"/>
<glyph unicode="?" horiz-adv-x="989" d="M118 1130q-10 15 -10 33q0 14 6 27q21 41 57 83q56 66 132 110q38 23 93 37q54 12 112 12q80 0 149 -25q70 -25 126 -74q53 -46 81 -114q27 -69 27 -154q0 -164 -84 -257l-42 -41q-30 -28 -59 -57l-47 -47q-43 -40 -55 -57q-16 -21 -26 -51q-20 -46 -20 -120v-16 q0 -28 -18.5 -47t-47.5 -19h-48q-28 0 -47 18t-19 44v61q0 76 21 137q21 59 59 99q56 57 93 87q57 46 88 82q30 36 45 75q16 41 16 94q0 58 -29 108q-28 48 -79 79q-46 28 -106 28q-85 0 -150 -53q-41 -34 -70 -87q-11 -19 -26.5 -29.5t-34.5 -10.5q-15 0 -29 7l-30 14 q-18 9 -28 24zM471 212q48 0 81 -30q32 -30 32 -74q0 -46 -30 -76q-31 -30 -81 -30q-52 0 -85 30t-33 76q0 44 34 74q35 30 82 30z" glyph-name="question"/>
<glyph unicode="@" horiz-adv-x="1986" d="M333 1117q108 124 272 207q163 81 381 81q216 0 394 -91q177 -91 281 -255q102 -160 102 -360q0 -153 -55 -284t-150 -208t-202 -77q-57 0 -104 41t-74 113q-79 -81 -147 -120q-67 -39 -134 -39q-112 0 -200 55q-89 56 -141 154q-51 98 -51 221q0 131 57 237 q55 105 156 167q98 61 222 61q172 0 278 -133l-2 42q-2 30 13.5 50.5t39.5 20.5t40 -19t16 -48l-3 -470q0 -31 -7 -108q0 -77 64 -77q57 0 112 58t88 153t33 198q0 249 -176 413q-90 82 -200 122q-114 41 -235 41q-92 0 -186 -23q-94 -25 -167 -67q-156 -90 -244 -244 t-88 -340q0 -155 69 -310q86 -171 243 -264q158 -93 381 -93q234 0 502 122q7 4 18.5 -15.5t23.5 -50.5l9 -24q7 -21 10 -36t1 -17l-6 -3q-267 -129 -557 -129q-283 0 -483 116q-201 116 -301 327q-88 180 -88 375q0 149 51 285q49 135 144 245zM808 333q43 -31 99 -31 q71 0 133 41q63 41 100 113q38 71 38 149q0 61 -29 113q-30 51 -83 80t-114 29q-67 0 -120 -36q-53 -35 -85 -101q-31 -61 -31 -144q0 -70 24 -126q24 -55 68 -87z" glyph-name="at"/>
<glyph unicode="A" horiz-adv-x="1320" d="M227 11q-15 -11 -34 -11h-60q-34 0 -55.5 20.5t-21.5 50.5q0 15 6 31l482 1270q7 18 22 28.5t34 10.5h132q19 0 34 -10.5t22 -28.5l472 -1270q6 -16 6 -31q0 -30 -20.5 -50.5t-52.5 -20.5h-63q-20 0 -34.5 10t-21.5 29l-113 309h-600l-112 -308q-7 -18 -22 -29zM662 1157 l-234 -627h467z" glyph-name="A"/>
<glyph unicode="B" horiz-adv-x="1286" d="M211.5 1392.5q18.5 18.5 47.5 18.5h446q117 0 210 -44q91 -45 142 -127t51 -193q0 -108 -41 -185q-42 -77 -127 -110q72 -15 127 -67q56 -53 87 -127q30 -73 30 -150q0 -114 -49 -205q-50 -92 -143 -146q-96 -57 -222 -57h-520q-28 0 -47.5 19.5t-19.5 47.5l10 1278 q0 29 18.5 47.5zM879 209q52 32 80 86q28 52 28 115t-30 120q-30 56 -83 92q-53 35 -118 35h-371v-479h377q65 0 117 31zM825 853q44 29 66 77q22 47 22 110q0 58 -29 104q-30 44 -83 68q-55 23 -116 23h-300v-410h340q57 0 100 28z" glyph-name="B"/>
<glyph unicode="C" horiz-adv-x="1398" d="M266 1169q90 110 230 185q137 73 319 73q143 0 262 -65q83 -45 160 -121q23 -22 23 -51q0 -20 -11.5 -37.5t-32.5 -27.5l-54 -27q-13 -6 -27 -6q-27 0 -44 20q-35 35 -71 67q-39 32 -83 47q-53 17 -122 17q-143 0 -264 -71q-120 -71 -191 -198q-69 -124 -69 -272 q0 -146 69 -271t190 -195q120 -72 265 -72q120 0 210 39q69 29 126 84q20 20 46 20q17 0 32 -9l48 -29q17 -10 26 -26t9 -34q0 -28 -22 -49q-77 -71 -176 -116q-138 -64 -299 -64q-141 0 -276 56q-133 55 -231 155q-97 99 -153 234q-55 132 -55 277q0 131 43 250 q44 120 123 217z" glyph-name="C"/>
<glyph unicode="D" horiz-adv-x="1482" d="M212 1392.5q19 18.5 47 18.5h430q100 0 199 -25q103 -26 184 -71q88 -48 153 -129q66 -83 106 -205q43 -128 43 -279q0 -150 -43 -276q-44 -129 -124 -224q-172 -202 -448 -202h-500q-28 0 -47 19t-19 47v1279q0 29 19 47.5zM938 216q76 37 134 113q55 75 83 168 q29 96 29 205q0 154 -50 272q-51 118 -150 188q-48 33 -131 52q-82 19 -164 19h-306v-1055h376q101 0 179 38z" glyph-name="D"/>
<glyph unicode="E" horiz-adv-x="1157" d="M1030.5 19q-18.5 -19 -47.5 -19h-724q-28 0 -47 19t-19 47v1279q0 29 19 47.5t47 18.5h703q29 0 47.5 -18.5t18.5 -47.5v-46q0 -28 -18.5 -47t-47.5 -19h-579v-451h477q29 0 47.5 -18.5t18.5 -47.5v-46q0 -28 -18.5 -47t-47.5 -19h-477v-426h600q29 0 47.5 -18.5 t18.5 -47.5v-46q0 -28 -18.5 -47z" glyph-name="E"/>
<glyph unicode="F" horiz-adv-x="1077" d="M364.5 19q-18.5 -19 -47.5 -19h-58q-28 0 -47 19t-19 47v1279q0 29 19 47.5t47 18.5h691q29 0 47.5 -18.5t18.5 -47.5v-46q0 -28 -18.5 -47t-47.5 -19h-567v-431h426q29 0 47.5 -18.5t18.5 -47.5v-46q0 -28 -18.5 -47t-47.5 -19h-426v-558q0 -28 -18.5 -47z" glyph-name="F"/>
<glyph unicode="G" horiz-adv-x="1548" d="M264 1169q93 112 229 185q137 73 320 73q135 0 258 -48q84 -32 159 -88q27 -19 27 -51q0 -29 -24 -52l-40 -37q-19 -17 -42 -17q-21 0 -41 14q-131 97 -297 97q-143 0 -263 -72q-121 -72 -190 -198q-69 -124 -69 -273q0 -146 69 -271q68 -125 188 -197t265 -72 q129 0 231 45q101 45 163 129q61 82 67 197l-335 -41q-32 -4 -54.5 16.5t-22.5 52.5v62q0 29 19 47.5t47 18.5h485q29 0 48 -19.5t18 -49.5q-15 -300 -170 -461q-173 -179 -496 -179q-142 0 -277 56q-131 54 -230 155q-96 98 -151 233q-55 132 -55 278q0 131 43 250 q42 120 121 217z" glyph-name="G"/>
<glyph unicode="H" horiz-adv-x="1449" d="M364.5 19q-18.5 -19 -47.5 -19h-58q-28 0 -47 19t-19 47v1279q0 29 19 47.5t47 18.5h58q29 0 47.5 -18.5t18.5 -47.5v-527h682v527q0 29 19 47.5t47 18.5h60q29 0 47.5 -18.5t18.5 -47.5v-1279q0 -28 -18.5 -47t-47.5 -19h-60q-28 0 -47 19t-19 47v568h-682v-568 q0 -28 -18.5 -47z" glyph-name="H"/>
<glyph unicode="I" horiz-adv-x="575" d="M364.5 18.5q-18.5 -18.5 -47.5 -18.5h-48q-29 0 -47.5 18.5t-18.5 47.5l-10 1278q0 29 19.5 48t47.5 19h66q29 0 48 -19t19 -48l-10 -1278q0 -29 -18.5 -47.5z" glyph-name="I"/>
<glyph unicode="J" horiz-adv-x="575" d="M96 -322q38 15 57 37q18 21 28 53q12 37 13 66l2 49v18l-10 1442q0 29 19.5 48t47.5 19h55q29 0 47.5 -18.5t18.5 -47.5l10 -1445q1 -202 -89 -306q-92 -104 -265 -104q-3 0 -6.5 17.5t-4.5 43.5l-3 50q-3 63 -2 63q43 0 82 15z" glyph-name="J"/>
<glyph unicode="K" horiz-adv-x="1183" d="M364.5 19q-18.5 -19 -47.5 -19h-58q-28 0 -47 19t-19 47v1279q0 29 19 47.5t47 18.5h58q29 0 47.5 -18.5t18.5 -47.5v-604l470 647q17 23 46 23h21q40 0 64.5 -23t24.5 -56q0 -29 -19 -55l-447 -630l479 -489q28 -28 43.5 -61t15.5 -59q0 -18 -8 -28t-23 -10h-105 q-23 0 -39 16l-523 526v-476q0 -28 -18.5 -47z" glyph-name="K"/>
<glyph unicode="L" horiz-adv-x="1013" d="M949.5 19q-18.5 -19 -47.5 -19h-633q-29 0 -47.5 18.5t-18.5 47.5l-10 1278q0 29 19.5 48t47.5 19h57q29 0 48 -18.5t19 -47.5l9 -1167h509q29 0 47.5 -18.5t18.5 -47.5v-46q0 -28 -18.5 -47z" glyph-name="L"/>
<glyph unicode="M" horiz-adv-x="1912" d="M287 15.5q-18 -15.5 -43 -15.5h-53q-32 0 -52.5 22.5t-16.5 54.5l156 1278q3 25 21 40.5t43 15.5h83q16 0 29.5 -8t20.5 -22l481 -886l482 886q7 14 20.5 22t29.5 8h83q25 0 43 -15.5t21 -40.5l156 -1278q4 -32 -16.5 -54.5t-52.5 -22.5h-53q-25 0 -43 15.5t-21 40.5 l-122 1005l-424 -756q-7 -14 -21 -21.5t-30 -7.5h-100q-16 0 -30 7.5t-21 21.5l-427 756l-122 -1005q-3 -25 -21 -40.5z" glyph-name="M"/>
<glyph unicode="N" horiz-adv-x="1400" d="M365.5 18.5q-18.5 -18.5 -47.5 -18.5h-58q-28 0 -47.5 19.5t-19.5 47.5l10 1278q0 29 18.5 47.5t47.5 18.5h90q15 0 28 -7.5t21 -20.5l620 -1027l-9 988q0 29 19 48t47 19h57q29 0 47.5 -18.5t18.5 -47.5l10 -1278q0 -28 -19 -47.5t-48 -19.5h-83q-15 0 -28 7.5t-21 20.5 l-626 1035l-9 -998q0 -28 -18.5 -46.5z" glyph-name="N"/>
<glyph unicode="O" horiz-adv-x="1630" d="M452 1330q163 97 361 97q132 0 249 -43t216 -125q92 -76 147 -171q55 -93 76 -190q19 -86 19 -196q0 -148 -51 -282t-146 -229q-98 -100 -231 -155q-135 -56 -279 -56q-142 0 -277 56q-131 54 -230 155q-93 95 -145 230q-51 134 -51 281q0 201 90 367q90 165 252 261z M301 662q0 -142 62 -248q62 -105 185 -178q120 -72 265 -72q144 0 266 71q120 70 190 196q33 61 46 110q12 47 12 121q0 99 -29 201q-28 99 -84 180q-63 90 -162 145q-101 55 -239 55q-142 0 -263 -71q-121 -72 -190 -198q-32 -54 -45 -136q-14 -86 -14 -176z" glyph-name="O"/>
<glyph unicode="P" horiz-adv-x="1241" d="M212.5 1392q19.5 19 47.5 19h456q111 0 214 -38q102 -37 149 -100q97 -127 97 -304q0 -176 -97 -303q-48 -63 -145 -100q-99 -38 -208 -38h-341l9 -460q1 -30 -18 -49t-49 -19h-58q-29 0 -47.5 18.5t-18.5 47.5l-10 1278q0 29 19.5 48zM818 725q52 18 90 49q77 62 77 195 q0 151 -99 224q-25 19 -74 29q-53 11 -98 11h-329v-526h328q53 0 105 18z" glyph-name="P"/>
<glyph unicode="Q" horiz-adv-x="1630" d="M264 1169q93 112 229 185q137 73 320 73q132 0 249 -43t216 -125q108 -92 181 -233q71 -142 71 -324q0 -188 -89 -352q-90 -163 -247 -262l107 -156q16 -23 16 -50q0 -22 -13 -39t-36 -24l-51 -13q-10 -2 -16 -2q-16 0 -29.5 7.5t-21.5 20.5l-114 182q-99 -34 -223 -34 q-142 0 -277 56q-131 54 -230 155q-96 98 -151 233q-55 132 -55 278q0 131 43 250q42 120 121 217zM528 252q111 -72 248 -80l50 -2q65 0 106 10l-121 197q-14 23 -14 46q0 22 13 39.5t36 22.5l46 11q10 2 15 2q15 0 28.5 -7.5t21.5 -21.5l137 -221q115 72 179 192 q64 118 64 262q0 147 -68 272q-68 123 -189 197q-121 72 -267 72q-142 0 -263 -71q-121 -72 -190 -198q-69 -124 -69 -272q0 -140 63 -259t174 -191z" glyph-name="Q"/>
<glyph unicode="R" horiz-adv-x="1267" d="M212 1392.5q19 18.5 47 18.5h476q104 0 188 -36q83 -37 133 -102q97 -127 97 -304q0 -165 -85 -286q-40 -58 -131 -98q-93 -41 -193 -50l307 -394q17 -22 26 -46t9 -45q0 -23 -10 -36.5t-30 -13.5h-89q-27 0 -44 22l-388 506h-140v-462q0 -28 -18.5 -47t-47.5 -19h-60 q-28 0 -47 19t-19 47v1279q0 29 19 47.5zM904 779q25 36 39 86q13 48 13 104q0 152 -96 224q-52 40 -131 40h-344v-526h336q132 0 183 72z" glyph-name="R"/>
<glyph unicode="S" horiz-adv-x="1173" d="M227 435q22 0 38.5 -14t24.5 -39q13 -37 35 -70q47 -72 119 -117q74 -47 156 -47q78 0 141 29q60 28 99 79q36 49 45 109q1 3 1 20q0 44 -17 86q-18 40 -52 66q-66 54 -172 79l-182 46q-344 87 -344 368q0 112 63 205q62 92 169 143q99 49 224 49q133 0 232 -49 q103 -51 157 -140q42 -70 53 -157q3 -25 -12.5 -43t-41.5 -23l-56 -10q-4 -1 -13 -1q-23 0 -39.5 15.5t-23.5 41.5q-7 29 -25 62q-35 60 -96 96q-62 36 -137 36q-70 0 -131 -29q-61 -30 -97 -81q-36 -52 -36 -113q0 -146 201 -196l184 -45q191 -50 286 -149q95 -101 95 -237 q0 -37 -4 -57q-14 -108 -75 -190q-62 -83 -163 -130q-102 -48 -233 -48q-100 0 -196 35q-94 34 -160 96q-65 61 -101 138q-26 53 -33 106l-1 9q0 20 13.5 35.5t35.5 20.5l53 13q12 2 16 2z" glyph-name="S"/>
<glyph unicode="T" horiz-adv-x="1163" d="M129 1231q-27 0 -45.5 17t-19.5 45l-3 46q-2 31 17.5 51.5t50.5 20.5h905q27 0 45.5 -17t19.5 -45l3 -46q2 -31 -17.5 -51.5t-50.5 -20.5h-366l9 -1164q0 -29 -19 -48t-47 -19h-60q-29 0 -48 18.5t-19 47.5l-9 1165h-346z" glyph-name="T"/>
<glyph unicode="U" horiz-adv-x="1388" d="M352.5 1392.5q18.5 -18.5 18.5 -47.5v-810q0 -93 44 -179q45 -88 118 -139q74 -53 161 -53q85 0 162 53q76 53 119 139q43 85 43 179v810q0 29 19 47.5t47 18.5h60q29 0 47.5 -18.5t18.5 -47.5v-860q0 -111 -40 -206q-41 -97 -113 -162q-71 -65 -166 -101t-197 -36 q-101 0 -196 36q-93 34 -166 101q-72 66 -113 163t-41 205v860q0 29 19 47.5t47 18.5h61q29 0 47.5 -18.5z" glyph-name="U"/>
<glyph unicode="V" d="M494 12q-16 12 -22 31l-386 1273q-4 11 -4 24q0 30 20.5 50.5t53.5 20.5h55q21 0 36.5 -11.5t21.5 -31.5l306 -996l307 996q6 20 21.5 31.5t36.5 11.5h53q33 0 54 -20.5t21 -50.5q0 -8 -4 -24l-383 -1273q-6 -19 -22 -31t-36 -12h-93q-20 0 -36 12z" glyph-name="V"/>
<glyph unicode="W" horiz-adv-x="1845" d="M515.5 11q-15.5 11 -21.5 30l-430 1272q-4 12 -4 27q0 30 20.5 50.5t53.5 20.5h58q20 0 35.5 -11.5t21.5 -30.5l341 -1062l247 811q6 20 21.5 31.5t36.5 11.5h55q21 0 36.5 -11.5t21.5 -31.5l247 -811l341 1062q6 19 22 30.5t36 11.5h57q33 0 54 -20.5t21 -50.5 q0 -15 -4 -27l-431 -1272q-6 -19 -21.5 -30t-35.5 -11h-78q-20 0 -36 12t-22 31l-236 778l-235 -778q-6 -19 -22 -31t-36 -12h-78q-20 0 -35.5 11z" glyph-name="W"/>
<glyph unicode="X" horiz-adv-x="1259" d="M246 7.5q-13 -7.5 -28 -7.5h-45q-38 0 -61.5 22.5t-23.5 54.5q0 25 15 50l411 651l-346 500q-25 37 -25 75q0 26 12.5 42t35.5 16h84q30 0 47 -25l307 -453l308 453q17 25 47 25h38q39 0 63 -23t24 -56q0 -29 -18 -54l-348 -500l413 -651q21 -33 21 -65 q0 -27 -14.5 -44.5t-39.5 -17.5h-83q-15 0 -28 7.5t-21 20.5l-362 602l-362 -602q-8 -13 -21 -20.5z" glyph-name="X"/>
<glyph unicode="Y" horiz-adv-x="1286" d="M116 1269q-16 22 -24.5 45.5t-8.5 43.5q0 23 10.5 37.5t30.5 13.5l87 -2q27 0 43 -21l399 -516l384 515q16 22 43 22l28 1q40 1 65.5 -23t25.5 -59q0 -30 -19 -56l-429 -591l-9 -614q-1 -28 -19.5 -46.5t-46.5 -18.5h-63q-29 0 -48.5 19.5t-18.5 48.5l9 611z" glyph-name="Y"/>
<glyph unicode="Z" horiz-adv-x="1173" d="M1054.5 19q-18.5 -19 -47.5 -19h-855q-28 0 -47 19t-19 47v84q0 16 9 29l726 1042h-650q-28 0 -47 19t-19 47v48q0 29 19 47.5t47 18.5h826q29 0 47.5 -18.5t18.5 -47.5v-94q0 -15 -9 -29l-710 -1032h663q29 0 47.5 -18.5t18.5 -47.5v-48q0 -28 -18.5 -47z" glyph-name="Z"/>
<glyph unicode="[" horiz-adv-x="669" d="M568.5 -448q-18.5 -17 -45.5 -17h-285q-28 0 -47 18.5t-19 47.5v1744q0 29 19 47.5t47 18.5h285q27 0 45.5 -17t19.5 -44l2 -38q2 -30 -17.5 -50.5t-49.5 -20.5h-157v-1536h157q30 0 49.5 -20.5t17.5 -50.5l-2 -38q-1 -27 -19.5 -44z" glyph-name="bracketleft"/>
<glyph unicode="\" horiz-adv-x="1026" d="M775 8.5q-14 8.5 -21 23.5l-634 1265q-12 26 -12 49q0 28 15.5 46.5t41.5 18.5h65q17 0 31 -8.5t21 -23.5l634 -1265q10 -20 10 -40q0 -31 -22.5 -52.5t-58.5 -21.5h-39q-17 0 -31 8.5z" glyph-name="backslash"/>
<glyph unicode="]" horiz-adv-x="669" d="M101.5 -448q-18.5 17 -19.5 44l-2 38q-2 30 17.5 50.5t49.5 20.5h156v1536h-155q-31 0 -50.5 20.5t-17.5 51.5l2 37q1 27 19.5 44t45.5 17h285q29 0 47.5 -18.5t18.5 -47.5v-1744q0 -29 -18.5 -47.5t-47.5 -18.5h-285q-27 0 -45.5 17z" glyph-name="bracketright"/>
<glyph unicode="_" horiz-adv-x="1431" d="M162.5 -202.5q-19.5 20.5 -17.5 51.5l2 33q1 26 20 43.5t45 17.5h1016q31 0 50.5 -20.5t17.5 -51.5l-2 -33q-1 -26 -20 -43.5t-45 -17.5h-1016q-31 0 -50.5 20.5z" glyph-name="underscore"/>
<glyph unicode="`" horiz-adv-x="1048" d="M481 1158l-115 155q-15 20 -23 42.5t-8 42.5q0 23 10.5 37.5t30.5 14.5h79q15 0 28 -7.5t21 -20.5l98 -163q14 -22 14 -47q0 -32 -23.5 -54.5t-60.5 -22.5h-6q-27 0 -45 23z" glyph-name="grave"/>
<glyph unicode="a" horiz-adv-x="1253" d="M336 917q110 60 242 60q107 0 200 -44q91 -43 135 -120v87q0 29 19 47.5t47 18.5h53q29 0 47.5 -18.5t18.5 -47.5v-834q0 -28 -18.5 -47t-47.5 -19h-38q-23 0 -40 13.5t-21 36.5l-20 97q-46 -78 -136 -122q-91 -45 -199 -45q-135 0 -245 64q-112 63 -176 177 q-65 116 -65 258q0 144 66 261q64 115 178 177zM444 204q74 -42 160 -42q88 0 158 40q69 38 110 111q39 72 39 168q0 93 -45 168q-46 75 -121 112q-38 19 -69 26q-35 8 -72 8q-88 0 -161 -40t-117 -111q-43 -70 -43 -163q0 -89 43 -162t118 -115z" glyph-name="a"/>
<glyph unicode="b" horiz-adv-x="1253" d="M175 1458.5q19 18.5 47 18.5h54q29 0 47.5 -18.5t18.5 -47.5v-588q42 73 129 109q88 35 207 35q138 0 246 -57q108 -58 171 -168q66 -115 66 -263q0 -144 -65 -260t-179 -178q-50 -29 -107 -39q-58 -12 -134 -12q-111 0 -200 42q-90 40 -134 115v-81q0 -28 -18.5 -47 t-47.5 -19h-54q-28 0 -47 19t-19 47v1345q0 29 19 47.5zM508 202q73 -40 164 -40q87 0 158 41t111 114t40 164q0 92 -40 163t-111 112q-70 39 -158 39q-60 0 -122 -20q-60 -21 -104 -59q-48 -40 -75 -102q-27 -61 -27 -133q0 -93 44 -166q43 -72 120 -113z" glyph-name="b"/>
<glyph unicode="c" horiz-adv-x="1048" d="M161 740q67 115 186 177q114 60 251 60q110 0 205 -40q61 -25 113 -66q23 -19 23 -48q0 -28 -22 -49l-42 -40q-19 -18 -42 -18q-21 0 -41 14q-36 23 -73 38q-72 27 -141 27q-89 0 -157 -39q-70 -39 -107 -111q-38 -74 -38 -164q0 -92 39 -166q37 -73 107 -114 q71 -41 156 -41q69 0 141 29q38 14 73 38q20 15 42 15q24 0 42 -18l42 -40q22 -21 22 -50q0 -30 -23 -47q-48 -40 -112 -66q-95 -41 -207 -41q-138 0 -253 62q-114 61 -183 176q-70 115 -70 263q0 144 69 259z" glyph-name="c"/>
<glyph unicode="d" horiz-adv-x="1253" d="M333 917q108 60 240 60q114 0 203 -43t135 -121v598q0 29 19 47.5t47 18.5h55q29 0 47.5 -18.5t18.5 -47.5v-1345q0 -28 -18.5 -47t-47.5 -19h-45q-25 0 -42.5 15t-20.5 40l-13 92q-44 -75 -137 -121q-91 -46 -199 -46q-132 0 -242 62t-174 175q-67 115 -67 262 q0 143 65 261q65 116 176 177zM432 204q74 -42 160 -42q88 0 158 40q69 38 110 111q39 72 39 168t-41 170q-43 75 -115 110q-67 34 -151 34q-88 0 -161 -40t-115 -111q-43 -70 -43 -163q0 -89 43 -162q41 -72 116 -115z" glyph-name="d"/>
<glyph unicode="e" horiz-adv-x="1138" d="M332 915q113 62 250 62q138 0 245 -61q106 -61 169 -175q61 -112 61 -260q0 -23 -6 -35q-6 -13 -6 -18l-766 -20q11 -79 54 -137q43 -61 108 -92q69 -32 147 -32q67 0 110 9q42 7 75 31q20 13 39 38q21 27 55 24q30 -3 79 -3h33q1 -2 2 -9t1 -16q0 -48 -31 -83 q-43 -47 -102 -82q-112 -66 -257 -66q-137 0 -252 62q-114 61 -181 173q-67 109 -67 256q0 144 64 257q63 112 176 177zM820 689q-39 56 -106 89q-62 31 -142 31q-119 0 -192 -67q-75 -69 -91 -189h583q-10 76 -52 136z" glyph-name="e"/>
<glyph unicode="f" horiz-adv-x="702" d="M74 907.5q19 18.5 47 18.5h119v127q0 129 37 224q36 95 107 148q72 54 177 54q19 0 45 -2l29 -3q29 -3 45.5 -23.5t13.5 -49.5l-5 -46q-3 -29 -16 -46.5t-29 -15.5l-38 5l-23 2q-43 0 -74 -21q-33 -23 -51 -58q-17 -36 -23 -70q-7 -34 -7 -85v-140h149q31 0 50 -20.5 t17 -51.5l-1 -24q-1 -27 -19.5 -44t-45.5 -17h-150l-9 -704q0 -28 -18.5 -46.5t-47.5 -18.5h-56q-29 0 -48 19t-18 48l9 702h-119q-28 0 -47 19t-19 47v25q0 29 19 47.5z" glyph-name="f"/>
<glyph unicode="g" horiz-adv-x="1251" d="M336 916q109 61 242 61q108 0 199 -46t136 -124l6 88q1 26 20 43.5t45 17.5h57q29 0 47.5 -19t18.5 -48l-9 -744q-5 -314 -133 -468q-130 -154 -390 -154q-135 0 -250 68q-90 54 -148 137q-24 33 -24 53q0 6 3 8l12 9q22 15 56 25l30 10q11 4 24 4q29 0 48 -26 q34 -44 87 -72q73 -40 162 -40q350 0 350 424q0 10 -1 12t-1 11q-37 -76 -135 -121q-97 -45 -210 -45q-135 0 -244 61q-108 59 -175 173q-67 112 -67 261q0 145 66 262q64 115 178 179zM432 202q73 -40 162 -40q59 0 115 21t102 60q45 39 67 99q23 61 23 135q0 96 -39 169 q-39 72 -109 111q-71 38 -159 38q-86 0 -160 -41q-73 -42 -117 -114q-44 -74 -44 -163q0 -93 43 -163q41 -71 116 -112z" glyph-name="g"/>
<glyph unicode="h" horiz-adv-x="1187" d="M176.5 1455.5q20.5 19.5 50.5 17.5l53 -3q27 -2 44.5 -20t17.5 -45v-592q24 50 75 87q53 39 116 58q60 19 124 19q120 0 211 -50q88 -51 135 -147q46 -93 41 -227l-18 -490q-1 -28 -19 -45.5t-46 -17.5h-53q-30 0 -49 20t-18 50l17 471q3 76 -23 137q-25 58 -76 94 q-49 33 -116 33q-51 0 -102 -19t-102 -53q-45 -31 -70 -88q-25 -58 -27 -129l-9 -451q-1 -28 -19.5 -46.5t-46.5 -18.5h-45q-28 0 -47 19t-19 47v1340q0 30 20.5 49.5z" glyph-name="h"/>
<glyph unicode="i" horiz-adv-x="495" d="M157 1325q38 35 91 35q54 0 92 -35q37 -34 37 -86t-37 -86q-38 -35 -92 -35q-53 0 -91 35t-38 86t38 86zM156 956v-956h184l-10 956h-174z" glyph-name="i"/>
<glyph unicode="j" horiz-adv-x="499" d="M66 -280q38 15 57 37q18 21 28 53q12 37 13 66l2 49v18l-9 946q0 29 19 48t47 19h56q29 0 47.5 -18.5t18.5 -46.5l9 -950q2 -203 -88 -306q-92 -104 -266 -104q-3 0 -6.5 17.5t-4.5 43.5l-3 50q-3 63 -2 63q43 0 82 15zM159 1325q38 35 91 35q54 0 92 -35q37 -34 37 -86 t-37 -86q-38 -35 -92 -35q-53 0 -91 35t-38 86t38 86z" glyph-name="j"/>
<glyph unicode="k" horiz-adv-x="1028" d="M321.5 19q-18.5 -19 -47.5 -19h-52q-28 0 -47 19t-19 47v1310q0 30 20.5 49.5t50.5 17.5l51 -3q27 -2 44.5 -20t17.5 -45v-782l314 345q16 18 40 18h21q43 0 69 -25t26 -61q0 -39 -28 -68l-268 -289l350 -354q29 -29 46 -64t17 -61q0 -16 -7 -25t-21 -9h-101 q-22 0 -38 16l-420 421v-371q0 -28 -18.5 -47z" glyph-name="k"/>
<glyph unicode="l" horiz-adv-x="497" d="M323.5 19q-18.5 -19 -47.5 -19h-54q-28 0 -47 19t-19 47v1339q0 31 20.5 50.5t51.5 17.5l53 -3q26 -2 43.5 -20t17.5 -45v-1339q0 -28 -18.5 -47z" glyph-name="l"/>
<glyph unicode="m" horiz-adv-x="1804" d="M175 937.5q19 18.5 47 18.5h50q26 0 44.5 -16.5t19.5 -43.5l6 -83q32 67 108 110q76 44 156 50q4 1 28 1q48 0 77 -7q181 -27 250 -187q102 197 331 197q120 0 203 -49q82 -49 126 -146q42 -92 40 -229l-9 -488q-1 -28 -19.5 -46.5t-46.5 -18.5h-53q-29 0 -48.5 19 t-18.5 49l9 473q1 76 -25 135q-25 55 -76 88q-50 31 -119 31h-3q-75 0 -130 -34q-57 -35 -88 -99t-33 -146l-9 -451q-1 -28 -19.5 -46.5t-46.5 -18.5h-53q-29 0 -48.5 19t-18.5 49l9 475q2 77 -24 134q-25 56 -72 88q-48 30 -111 30q-116 0 -184 -72q-69 -73 -72 -207 l-9 -451q-1 -28 -19.5 -46.5t-46.5 -18.5h-55q-28 0 -47 19t-19 47v824q0 29 19 47.5z" glyph-name="m"/>
<glyph unicode="n" horiz-adv-x="1153" d="M175 937.5q19 18.5 47 18.5h50q26 0 44.5 -16.5t19.5 -43.5l6 -83q65 134 299 134q112 0 197 -55q84 -54 131 -149q44 -93 41 -190l-14 -490q-1 -28 -20 -46t-47 -18h-49q-28 0 -47.5 19.5t-18.5 48.5l9 474q2 120 -49 182q-53 62 -152 62q-64 0 -112 -12 q-47 -11 -83 -41q-45 -37 -70 -93q-26 -59 -25 -123l9 -448q1 -30 -18 -49t-49 -19h-52q-28 0 -47 19t-19 47v824q0 29 19 47.5z" glyph-name="n"/>
<glyph unicode="o" horiz-adv-x="1185" d="M102 481q0 147 64 262q63 114 176 174q112 60 250 60q139 0 252 -60q114 -62 181 -174q33 -55 46 -116q13 -62 13 -146q0 -148 -64 -263q-65 -116 -178 -177q-112 -61 -250 -61t-251 62q-114 61 -180 176q-31 53 -45 117q-14 65 -14 146zM432 191q74 -41 160 -41 q87 0 160 41q72 41 114 114q41 74 41 166q0 90 -41 163q-40 71 -114 112q-72 39 -160 39t-160 -39q-73 -40 -114 -111q-42 -72 -42 -164t42 -166q40 -73 114 -114z" glyph-name="o"/>
<glyph unicode="p" horiz-adv-x="1247" d="M175 937.5q19 18.5 47 18.5h49q26 0 45 -17.5t20 -43.5l6 -88q46 78 137 124t197 46q134 0 243 -64q108 -64 173 -178q63 -115 63 -260q0 -144 -64 -259q-65 -117 -175 -176q-108 -60 -240 -60q-109 0 -194 43q-87 43 -130 120l-1 -542q0 -29 -18.5 -47.5t-47.5 -18.5 h-63q-28 0 -47 18.5t-19 47.5v1289q0 29 19 47.5zM501 190q74 -38 156 -38q88 0 161 40q72 38 116 110q43 70 43 161t-43 167t-117 121q-74 44 -160 44q-87 0 -158 -42q-73 -44 -113 -118q-42 -76 -42 -172q0 -92 42 -163q43 -72 115 -110z" glyph-name="p"/>
<glyph unicode="q" horiz-adv-x="1247" d="M328 898q110 59 243 59q113 0 204 -38q90 -40 130 -112l6 88q1 26 20 43.5t45 17.5h50q29 0 47.5 -18.5t18.5 -47.5v-1289q0 -29 -18.5 -47.5t-47.5 -18.5h-55q-28 0 -47 18.5t-19 47.5v542q-41 -75 -133 -119q-89 -44 -201 -44q-135 0 -241 61q-108 61 -172 173 q-66 114 -66 261q0 143 63 252q61 109 173 171zM433 201q69 -39 157 -39q84 0 153 36q69 35 115 105q57 89 57 170q0 95 -43 168t-119 114q-73 40 -163 40q-86 0 -157 -41q-68 -39 -110 -115q-40 -73 -40 -166q0 -91 40 -161q39 -70 110 -111z" glyph-name="q"/>
<glyph unicode="r" horiz-adv-x="808" d="M175 937.5q19 18.5 47 18.5h48q27 0 45 -17.5t20 -44.5l7 -153q33 115 99 169t167 54q70 0 116 -8q20 -3 31 -19t11 -37q0 -8 -1 -12l-6 -34q-6 -33 -18 -51.5t-25 -14.5q-9 3 -29 7q-28 4 -83 4q-87 0 -152 -59q-66 -60 -93 -162q-11 -43 -14 -86q-3 -46 -3 -144v-282 q0 -28 -18.5 -47t-47.5 -19h-54q-28 0 -47 19t-19 47v824q0 29 19 47.5z" glyph-name="r"/>
<glyph unicode="s" horiz-adv-x="899" d="M265 254q10 -20 17 -29q22 -31 52 -47q32 -19 57 -26q27 -8 61 -8q30 0 33 1q69 5 108 36q38 32 38 82q0 47 -34 81q-33 33 -93 47l-131 31q-134 34 -195 102q-63 68 -63 171l2 38q6 67 53 123q47 57 121 89q76 32 158 32q132 0 220 -61q44 -29 70 -85q12 -30 16 -47 q3 -10 3 -19q0 -28 -21 -46.5t-51 -16.5l-44 3q-33 1 -51 40q-10 23 -33 42q-37 28 -95 28q-56 0 -99 -24q-45 -25 -55 -62q-6 -21 -6 -49q0 -16 8 -27q23 -48 113 -73l141 -35q248 -62 248 -279q0 -83 -48 -148q-49 -66 -135 -102q-85 -36 -188 -36q-92 0 -170 36t-129 105 q-24 34 -34 74l-5 20q-1 4 -1 12q0 29 22 48t53 17l39 -3q35 -3 48 -35z" glyph-name="s"/>
<glyph unicode="t" horiz-adv-x="671" d="M121 809q-28 0 -47 19t-19 47v15q0 29 19 47.5t47 18.5h96v295q0 29 19 47.5t47 18.5h55q29 0 47.5 -18.5t18.5 -47.5v-295h146q29 0 47.5 -18.5t18.5 -47.5v-15q0 -28 -18.5 -47t-47.5 -19h-146v-743q0 -28 -18.5 -47t-47.5 -19h-55q-28 0 -47 19t-19 47v743h-96z" glyph-name="t"/>
<glyph unicode="u" d="M311.5 937.5q18.5 -18.5 18.5 -47.5v-474q0 -79 26 -139q26 -61 72 -92q47 -33 111 -33q97 0 185 72q40 33 63 89q22 54 22 127v450q0 29 19 47.5t47 18.5h54q29 0 47.5 -18.5t18.5 -47.5v-824q0 -28 -18.5 -47t-47.5 -19h-50q-26 0 -44.5 16.5t-19.5 43.5l-6 83 q-38 -76 -119 -119q-83 -44 -178 -44q-177 0 -273 109q-96 108 -96 306v495q0 29 19 47.5t47 18.5h55q29 0 47.5 -18.5z" glyph-name="u"/>
<glyph unicode="v" horiz-adv-x="1044" d="M439 10q-15 10 -22 27l-338 813q-8 17 -8 39q0 28 17 47.5t45 19.5h59q18 0 32.5 -9.5t21.5 -26.5l276 -652l274 652q7 17 21.5 26.5t32.5 9.5h45q35 0 56.5 -20.5t21.5 -51.5q0 -19 -7 -34l-341 -814q-7 -17 -21.5 -26.5t-32.5 -9.5h-99q-18 0 -33 10z" glyph-name="v"/>
<glyph unicode="w" horiz-adv-x="1617" d="M410 10q-15 10 -22 28l-307 807q-7 18 -7 37q0 31 18 50.5t47 18.5l60 -3q18 -1 32 -11.5t20 -27.5l226 -622l226 629q7 18 22 29t34 11h96q19 0 34 -11t22 -29l226 -629l226 622q6 17 20 27.5t32 11.5l43 2q36 1 59 -19.5t23 -52.5q0 -14 -6 -31l-299 -808 q-7 -18 -22 -28.5t-34 -10.5h-71q-19 0 -34 10.5t-22 27.5l-245 634l-237 -633q-7 -18 -22 -28.5t-34 -10.5h-70q-19 0 -34 10z" glyph-name="w"/>
<glyph unicode="x" horiz-adv-x="1024" d="M218 9l-12 -1q-42 -2 -68.5 22t-26.5 60q0 30 20 57l272 377l-205 285q-16 23 -24.5 47t-8.5 45q0 23 10 37t29 13l84 -4q28 -2 43 -23l181 -248l183 249q16 20 42 22l15 1q42 2 68.5 -22t26.5 -60q0 -30 -20 -57l-206 -285l272 -377q17 -23 25.5 -48t8.5 -46 q0 -22 -10 -35.5t-28 -12.5l-85 4q-26 2 -42 22l-250 340l-252 -340q-16 -20 -42 -22z" glyph-name="x"/>
<glyph unicode="y" horiz-adv-x="1042" d="M91 837q-11 23 -11 49q0 29 15.5 47.5t41.5 17.5l63 -3q17 -1 30 -10t20 -25l282 -649l263 647q7 16 20.5 26t30.5 11l38 2q36 1 59.5 -20.5t23.5 -53.5q0 -18 -7 -35l-531 -1270q-7 -17 -21.5 -26.5t-32.5 -9.5h-41q-35 0 -56.5 21t-21.5 52q0 18 7 33l177 428z" glyph-name="y"/>
<glyph unicode="z" horiz-adv-x="1028" d="M906.5 20.5q-19.5 -20.5 -49.5 -20.5h-705q-28 0 -47 19t-19 47v67q0 20 14 36l565 609h-474q-27 0 -45.5 16.5t-19.5 44.5l-3 45q-2 31 17.5 51.5t50.5 20.5h671q29 0 47.5 -18.5t18.5 -47.5v-66q0 -20 -15 -37l-575 -609h518q27 0 45.5 -17t19.5 -45l3 -45 q2 -30 -17.5 -50.5z" glyph-name="z"/>
<glyph unicode="{" horiz-adv-x="819" d="M88.5 530.5q8.5 12.5 22.5 17.5q15 4 29 14q30 20 48 50q17 29 17 56v360q0 116 52 207t145 142q92 50 206 50h65q29 0 47.5 -18.5t18.5 -47.5v-25q0 -26 -17 -44t-43 -20l-77 -6q-221 -17 -221 -188v-410q0 -59 -27 -112q-29 -54 -73 -77q43 -24 71 -78q29 -55 29 -108 v-406q0 -90 59 -137q57 -45 162 -53l77 -6q26 -2 43 -20t17 -44v-26q0 -29 -18.5 -47.5t-46.5 -18.5h-66q-113 0 -205 50q-93 52 -145 143q-53 92 -53 209v356q0 26 -17 57q-18 28 -47 48q-6 4 -18 10q-43 19 -43 54v37q0 19 8.5 31.5z" glyph-name="braceleft"/>
<glyph unicode="|" horiz-adv-x="471" d="M280.5 -220.5q-18.5 -18.5 -46.5 -18.5q-27 0 -44.5 19.5t-17.5 48.5v1729q0 28 18.5 46.5t46.5 18.5q27 0 44.5 -19.5t17.5 -48.5v-1729q0 -28 -18.5 -46.5z" glyph-name="bar"/>
<glyph unicode="}" horiz-adv-x="819" d="M379 -245q59 51 59 142v396q0 54 30 108q28 54 71 78q-44 23 -73 77q-28 52 -28 112v400q0 90 -59 141q-60 50 -162 57l-77 6q-26 2 -43 20t-17 44v25q0 29 19 47.5t47 18.5h65q113 0 207 -50q92 -50 144 -141t52 -208v-360q0 -28 18 -56q15 -28 46 -49q12 -8 19 -11 q20 -9 31 -21.5t11 -31.5v-38q0 -19 -8.5 -31.5t-22.5 -17.5q-15 -4 -29 -14q-30 -20 -47 -49q-18 -28 -18 -56v-356q0 -118 -52 -209q-52 -90 -146 -142q-92 -51 -205 -51h-65q-28 0 -47 18.5t-19 47.5v26q0 26 17 44t43 20l77 6q103 8 162 58z" glyph-name="braceright"/>
</font>
</defs>
</svg>
